<svg width="256" height="64" viewBox="0 0 256 64" fill="none" xmlns="http://www.w3.org/2000/svg">
  <rect width="256" height="64" rx="12" fill="none"/>
  <path d="M34 18C26.268 18 20 24.268 20 32C20 39.732 26.268 46 34 46C41.732 46 48 39.732 48 32C48 24.268 41.732 18 34 18ZM34 24C38.418 24 42 27.582 42 32C42 36.418 38.418 40 34 40C29.582 40 26 36.418 26 32C26 27.582 29.582 24 34 24Z" fill="#00E6A7"/>
  <path d="M72.058 20L58 44H65.192L67.7 39.594H76.416L78.924 44H86.3L72.242 20H72.058ZM70.944 33.892L72.058 31.752L73.172 33.892H70.944Z" fill="white"/>
  <path d="M98.29 44.46C92.126 44.46 88.018 41.492 87.834 36.81H94.424C94.608 39.042 96.012 40.078 98.336 40.078C100.614 40.078 101.926 39.18 101.926 37.684C101.926 36.234 100.706 35.612 97.818 35.036L95.954 34.668C90.962 33.678 88.386 31.308 88.386 27.2C88.386 22.334 92.31 19.54 98.106 19.54C103.994 19.54 107.642 22.38 108.01 26.948H101.512C101.19 25.13 99.97 24.06 98.06 24.06C96.196 24.06 95.068 24.912 95.068 26.224C95.068 27.536 96.012 28.158 98.566 28.688L100.43 29.056C106.134 30.184 108.7 32.416 108.7 36.578C108.7 41.768 104.224 44.46 98.29 44.46Z" fill="white"/>
  <path d="M121.134 44.46C114.97 44.46 110.862 41.492 110.678 36.81H117.268C117.452 39.042 118.856 40.078 121.18 40.078C123.458 40.078 124.77 39.18 124.77 37.684C124.77 36.234 123.55 35.612 120.662 35.036L118.798 34.668C113.806 33.678 111.23 31.308 111.23 27.2C111.23 22.334 115.154 19.54 120.95 19.54C126.838 19.54 130.486 22.38 130.854 26.948H124.356C124.034 25.13 122.814 24.06 120.904 24.06C119.04 24.06 117.912 24.912 117.912 26.224C117.912 27.536 118.856 28.158 121.41 28.688L123.274 29.056C128.978 30.184 131.544 32.416 131.544 36.578C131.544 41.768 127.068 44.46 121.134 44.46Z" fill="white"/>
  <path d="M144.246 20L130.188 44H137.38L139.888 39.594H148.604L151.112 44H158.488L144.43 20H144.246ZM143.132 33.892L144.246 31.752L145.36 33.892H143.132Z" fill="white"/>
  <path d="M170.478 44.46C164.314 44.46 160.206 41.492 160.022 36.81H166.612C166.796 39.042 168.2 40.078 170.524 40.078C172.802 40.078 174.114 39.18 174.114 37.684C174.114 36.234 172.894 35.612 170.006 35.036L168.142 34.668C163.15 33.678 160.574 31.308 160.574 27.2C160.574 22.334 164.498 19.54 170.294 19.54C176.182 19.54 179.83 22.38 180.198 26.948H173.7C173.378 25.13 172.158 24.06 170.248 24.06C168.384 24.06 167.256 24.912 167.256 26.224C167.256 27.536 168.2 28.158 170.754 28.688L172.618 29.056C178.322 30.184 180.888 32.416 180.888 36.578C180.888 41.768 176.412 44.46 170.478 44.46Z" fill="white"/>
  <path d="M193.322 44.46C187.158 44.46 183.05 41.492 182.866 36.81H189.456C189.64 39.042 191.044 40.078 193.368 40.078C195.646 40.078 196.958 39.18 196.958 37.684C196.958 36.234 195.738 35.612 192.85 35.036L190.986 34.668C185.994 33.678 183.418 31.308 183.418 27.2C183.418 22.334 187.342 19.54 193.138 19.54C199.026 19.54 202.674 22.38 203.042 26.948H196.544C196.222 25.13 195.002 24.06 193.092 24.06C191.228 24.06 190.1 24.912 190.1 26.224C190.1 27.536 191.044 28.158 193.598 28.688L195.462 29.056C201.166 30.184 203.732 32.416 203.732 36.578C203.732 41.768 199.256 44.46 193.322 44.46Z" fill="white"/>
</svg>
